<?xml version="1.0" ?>
<svg xmlns="http://www.w3.org/2000/svg" xmlns:ev="http://www.w3.org/2001/xml-events" xmlns:xlink="http://www.w3.org/1999/xlink" baseProfile="full" height="628" version="1.1" viewBox="633 274 648 648" width="628">
	<defs/>
	<path d="M 684.0,906.0 L 683.0,907.0 L 680.0,907.0 L 679.0,908.0 L 677.0,908.0 L 675.0,910.0 L 674.0,910.0 L 673.0,911.0 L 672.0,911.0 L 669.0,914.0 L 668.0,914.0 L 665.0,917.0 L 664.0,917.0 L 661.0,920.0 L 660.0,920.0 L 658.0,922.0 L 657.0,922.0 L 656.0,923.0 L 655.0,923.0 L 653.0,925.0 L 652.0,925.0 L 651.0,926.0 L 650.0,926.0 L 649.0,927.0 L 648.0,927.0 L 647.0,928.0 L 646.0,928.0 L 644.0,930.0 L 642.0,930.0 L 641.0,931.0 L 640.0,931.0 L 639.0,932.0 L 638.0,932.0 L 637.0,933.0 L 635.0,933.0 L 634.0,934.0 L 633.0,934.0 L 632.0,935.0 L 631.0,935.0 L 630.0,936.0 L 629.0,936.0 L 628.0,937.0 L 627.0,937.0 L 626.0,938.0 L 625.0,938.0 L 624.0,939.0 L 622.0,939.0 L 621.0,940.0 L 619.0,940.0 L 618.0,941.0 L 616.0,941.0 L 615.0,942.0 L 613.0,942.0 L 612.0,943.0 L 607.0,943.0 L 606.0,944.0 L 601.0,944.0 L 600.0,945.0 L 595.0,945.0 L 594.0,946.0 L 593.0,946.0 L 592.0,947.0 L 590.0,947.0 L 589.0,948.0 L 587.0,948.0 L 585.0,950.0 L 583.0,950.0 L 582.0,951.0 L 581.0,951.0 L 579.0,953.0 L 578.0,953.0 L 565.0,966.0 L 565.0,967.0 L 561.0,971.0 L 560.0,971.0 L 558.0,973.0 L 557.0,973.0 L 556.0,974.0 L 555.0,974.0 L 553.0,976.0 L 552.0,976.0 L 551.0,977.0 L 550.0,977.0 L 549.0,978.0 L 548.0,978.0 L 546.0,980.0 L 545.0,980.0 L 544.0,981.0 L 543.0,981.0 L 542.0,982.0 L 541.0,982.0 L 539.0,984.0 L 537.0,984.0 L 536.0,985.0 L 533.0,985.0 L 532.0,986.0 L 530.0,986.0 L 529.0,987.0 L 517.0,987.0 L 516.0,986.0 L 512.0,986.0 L 511.0,985.0 L 504.0,985.0 L 503.0,986.0 L 502.0,986.0 L 501.0,985.0 L 493.0,985.0 L 492.0,986.0 L 481.0,986.0 L 480.0,987.0 L 477.0,987.0 L 476.0,988.0 L 474.0,988.0 L 473.0,989.0 L 471.0,989.0 L 470.0,990.0 L 468.0,990.0 L 467.0,991.0 L 466.0,991.0 L 465.0,992.0 L 464.0,992.0 L 463.0,993.0 L 462.0,993.0 L 461.0,994.0 L 460.0,994.0 L 459.0,995.0 L 458.0,995.0 L 457.0,996.0 L 456.0,996.0 L 455.0,997.0 L 454.0,997.0 L 453.0,998.0 L 452.0,998.0 L 451.0,999.0 L 450.0,999.0 L 449.0,1000.0 L 448.0,1000.0 L 447.0,1001.0 L 446.0,1001.0 L 445.0,1002.0 L 444.0,1002.0 L 442.0,1004.0 L 441.0,1004.0 L 440.0,1005.0 L 439.0,1005.0 L 438.0,1006.0 L 437.0,1006.0 L 435.0,1008.0 L 434.0,1008.0 L 433.0,1009.0 L 432.0,1009.0 L 430.0,1011.0 L 429.0,1011.0 L 428.0,1012.0 L 427.0,1012.0 L 426.0,1013.0 L 425.0,1013.0 L 423.0,1015.0 L 422.0,1015.0 L 421.0,1016.0 L 420.0,1016.0 L 419.0,1017.0 L 418.0,1017.0 L 417.0,1018.0 L 416.0,1018.0 L 415.0,1019.0 L 414.0,1019.0 L 412.0,1021.0 L 411.0,1021.0 L 410.0,1022.0 L 409.0,1022.0 L 408.0,1023.0 L 407.0,1023.0 L 406.0,1024.0 L 405.0,1024.0 L 404.0,1025.0 L 403.0,1025.0 L 401.0,1027.0 L 400.0,1027.0 L 399.0,1028.0 L 398.0,1028.0 L 397.0,1029.0 L 396.0,1029.0 L 395.0,1030.0 L 394.0,1030.0 L 393.0,1031.0 L 392.0,1031.0 L 390.0,1033.0 L 389.0,1033.0 L 388.0,1034.0 L 387.0,1034.0 L 386.0,1035.0 L 385.0,1035.0 L 383.0,1037.0 L 382.0,1037.0 L 381.0,1038.0 L 380.0,1038.0 L 379.0,1039.0 L 378.0,1039.0 L 377.0,1040.0 L 376.0,1040.0 L 375.0,1041.0 L 374.0,1041.0 L 373.0,1042.0 L 372.0,1042.0 L 371.0,1043.0 L 369.0,1043.0 L 368.0,1044.0 L 367.0,1044.0 L 366.0,1045.0 L 364.0,1045.0 L 363.0,1046.0 L 362.0,1046.0 L 361.0,1047.0 L 360.0,1047.0 L 359.0,1048.0 L 358.0,1048.0 L 357.0,1049.0 L 355.0,1049.0 L 354.0,1050.0 L 353.0,1050.0 L 352.0,1051.0 L 350.0,1051.0 L 349.0,1052.0 L 348.0,1052.0 L 347.0,1053.0 L 346.0,1053.0 L 344.0,1055.0 L 343.0,1055.0 L 342.0,1056.0 L 341.0,1056.0 L 340.0,1057.0 L 339.0,1057.0 L 337.0,1059.0 L 336.0,1059.0 L 334.0,1061.0 L 333.0,1061.0 L 331.0,1063.0 L 330.0,1063.0 L 328.0,1065.0 L 327.0,1065.0 L 325.0,1067.0 L 324.0,1067.0 L 322.0,1069.0 L 321.0,1069.0 L 320.0,1070.0 L 319.0,1070.0 L 315.0,1074.0 L 314.0,1074.0 L 313.0,1075.0 L 312.0,1075.0 L 311.0,1076.0 L 309.0,1076.0 L 308.0,1077.0 L 306.0,1077.0 L 309.0,1077.0 L 310.0,1076.0 L 312.0,1076.0 L 313.0,1075.0 L 314.0,1075.0 L 315.0,1074.0 L 316.0,1074.0 L 320.0,1070.0 L 321.0,1070.0 L 322.0,1069.0 L 323.0,1069.0 L 325.0,1067.0 L 326.0,1067.0 L 328.0,1065.0 L 329.0,1065.0 L 332.0,1062.0 L 333.0,1062.0 L 335.0,1060.0 L 336.0,1060.0 L 337.0,1059.0 L 338.0,1059.0 L 340.0,1057.0 L 341.0,1057.0 L 342.0,1056.0 L 343.0,1056.0 L 345.0,1054.0 L 346.0,1054.0 L 347.0,1053.0 L 348.0,1053.0 L 349.0,1052.0 L 350.0,1052.0 L 351.0,1051.0 L 353.0,1051.0 L 354.0,1050.0 L 355.0,1050.0 L 356.0,1049.0 L 358.0,1049.0 L 359.0,1048.0 L 360.0,1048.0 L 361.0,1047.0 L 362.0,1047.0 L 363.0,1046.0 L 364.0,1046.0 L 365.0,1045.0 L 366.0,1045.0 L 367.0,1044.0 L 369.0,1044.0 L 370.0,1043.0 L 372.0,1043.0 L 373.0,1042.0 L 374.0,1042.0 L 375.0,1041.0 L 376.0,1041.0 L 377.0,1040.0 L 378.0,1040.0 L 379.0,1039.0 L 380.0,1039.0 L 381.0,1038.0 L 382.0,1038.0 L 384.0,1036.0 L 385.0,1036.0 L 386.0,1035.0 L 387.0,1035.0 L 388.0,1034.0 L 389.0,1034.0 L 390.0,1033.0 L 391.0,1033.0 L 393.0,1031.0 L 394.0,1031.0 L 395.0,1030.0 L 396.0,1030.0 L 397.0,1029.0 L 398.0,1029.0 L 399.0,1028.0 L 400.0,1028.0 L 402.0,1026.0 L 403.0,1026.0 L 404.0,1025.0 L 405.0,1025.0 L 406.0,1024.0 L 407.0,1024.0 L 408.0,1023.0 L 409.0,1023.0 L 410.0,1022.0 L 411.0,1022.0 L 412.0,1021.0 L 413.0,1021.0 L 415.0,1019.0 L 416.0,1019.0 L 417.0,1018.0 L 418.0,1018.0 L 419.0,1017.0 L 420.0,1017.0 L 421.0,1016.0 L 422.0,1016.0 L 423.0,1015.0 L 424.0,1015.0 L 426.0,1013.0 L 427.0,1013.0 L 428.0,1012.0 L 429.0,1012.0 L 430.0,1011.0 L 431.0,1011.0 L 433.0,1009.0 L 434.0,1009.0 L 435.0,1008.0 L 436.0,1008.0 L 438.0,1006.0 L 439.0,1006.0 L 440.0,1005.0 L 441.0,1005.0 L 442.0,1004.0 L 443.0,1004.0 L 445.0,1002.0 L 446.0,1002.0 L 447.0,1001.0 L 448.0,1001.0 L 449.0,1000.0 L 450.0,1000.0 L 451.0,999.0 L 452.0,999.0 L 453.0,998.0 L 454.0,998.0 L 455.0,997.0 L 456.0,997.0 L 457.0,996.0 L 458.0,996.0 L 459.0,995.0 L 460.0,995.0 L 461.0,994.0 L 462.0,994.0 L 463.0,993.0 L 464.0,993.0 L 465.0,992.0 L 466.0,992.0 L 467.0,991.0 L 468.0,991.0 L 469.0,990.0 L 471.0,990.0 L 472.0,989.0 L 473.0,989.0 L 474.0,988.0 L 476.0,988.0 L 477.0,987.0 L 480.0,987.0 L 481.0,986.0 L 492.0,986.0 L 493.0,985.0 L 501.0,985.0 L 502.0,986.0 L 503.0,986.0 L 504.0,985.0 L 511.0,985.0 L 512.0,986.0 L 516.0,986.0 L 517.0,987.0 L 529.0,987.0 L 530.0,986.0 L 532.0,986.0 L 533.0,985.0 L 536.0,985.0 L 537.0,984.0 L 540.0,984.0 L 542.0,982.0 L 543.0,982.0 L 544.0,981.0 L 545.0,981.0 L 546.0,980.0 L 547.0,980.0 L 549.0,978.0 L 550.0,978.0 L 551.0,977.0 L 552.0,977.0 L 553.0,976.0 L 554.0,976.0 L 556.0,974.0 L 557.0,974.0 L 558.0,973.0 L 559.0,973.0 L 561.0,971.0 L 562.0,971.0 L 564.0,969.0 L 564.0,968.0 L 580.0,952.0 L 581.0,952.0 L 582.0,951.0 L 583.0,951.0 L 584.0,950.0 L 585.0,950.0 L 586.0,949.0 L 587.0,949.0 L 588.0,948.0 L 589.0,948.0 L 590.0,947.0 L 592.0,947.0 L 593.0,946.0 L 594.0,946.0 L 595.0,945.0 L 600.0,945.0 L 601.0,944.0 L 606.0,944.0 L 607.0,943.0 L 612.0,943.0 L 613.0,942.0 L 615.0,942.0 L 616.0,941.0 L 618.0,941.0 L 619.0,940.0 L 621.0,940.0 L 622.0,939.0 L 624.0,939.0 L 625.0,938.0 L 627.0,938.0 L 628.0,937.0 L 629.0,937.0 L 630.0,936.0 L 631.0,936.0 L 632.0,935.0 L 633.0,935.0 L 634.0,934.0 L 635.0,934.0 L 636.0,933.0 L 637.0,933.0 L 638.0,932.0 L 639.0,932.0 L 640.0,931.0 L 641.0,931.0 L 642.0,930.0 L 645.0,930.0 L 647.0,928.0 L 648.0,928.0 L 649.0,927.0 L 650.0,927.0 L 651.0,926.0 L 652.0,926.0 L 653.0,925.0 L 654.0,925.0 L 656.0,923.0 L 657.0,923.0 L 658.0,922.0 L 659.0,922.0 L 661.0,920.0 L 662.0,920.0 L 665.0,917.0 L 666.0,917.0 L 670.0,913.0 L 671.0,913.0 L 673.0,911.0 L 674.0,911.0 L 675.0,910.0 L 676.0,910.0 L 678.0,908.0 L 679.0,908.0 L 680.0,907.0 L 683.0,907.0 L 684.0,906.0 L 686.0,906.0" fill="none" stroke="#000000" stroke-width="1"/>
	<path d="M 1160.0,889.0 L 1161.0,889.0 L 1162.0,890.0 L 1164.0,890.0 L 1165.0,891.0 L 1166.0,891.0 L 1167.0,892.0 L 1170.0,892.0 L 1171.0,893.0 L 1175.0,893.0 L 1176.0,894.0 L 1178.0,894.0 L 1179.0,895.0 L 1182.0,895.0 L 1183.0,896.0 L 1185.0,896.0 L 1186.0,897.0 L 1189.0,897.0 L 1190.0,898.0 L 1192.0,898.0 L 1193.0,899.0 L 1198.0,899.0 L 1199.0,900.0 L 1202.0,900.0 L 1203.0,901.0 L 1204.0,901.0 L 1205.0,902.0 L 1206.0,902.0 L 1207.0,903.0 L 1208.0,903.0 L 1209.0,904.0 L 1210.0,903.0 L 1213.0,903.0 L 1214.0,904.0 L 1216.0,904.0 L 1218.0,906.0 L 1219.0,906.0 L 1223.0,910.0 L 1224.0,910.0 L 1227.0,913.0 L 1228.0,913.0 L 1229.0,914.0 L 1230.0,914.0 L 1232.0,916.0 L 1233.0,916.0 L 1234.0,917.0 L 1235.0,917.0 L 1236.0,918.0 L 1237.0,918.0 L 1238.0,919.0 L 1239.0,919.0 L 1241.0,921.0 L 1242.0,921.0 L 1244.0,923.0 L 1245.0,923.0 L 1246.0,924.0 L 1248.0,924.0 L 1249.0,925.0 L 1250.0,925.0 L 1251.0,926.0 L 1252.0,926.0 L 1253.0,927.0 L 1254.0,927.0 L 1255.0,928.0 L 1256.0,928.0 L 1257.0,929.0 L 1258.0,929.0 L 1259.0,930.0 L 1260.0,930.0 L 1261.0,931.0 L 1262.0,931.0 L 1263.0,932.0 L 1264.0,932.0 L 1265.0,933.0 L 1266.0,933.0 L 1267.0,934.0 L 1269.0,934.0 L 1270.0,935.0 L 1271.0,935.0 L 1272.0,936.0 L 1273.0,936.0 L 1274.0,937.0 L 1275.0,937.0 L 1276.0,938.0 L 1277.0,938.0 L 1279.0,940.0 L 1281.0,940.0 L 1282.0,941.0 L 1283.0,941.0 L 1284.0,942.0 L 1285.0,942.0 L 1286.0,943.0 L 1287.0,943.0 L 1289.0,945.0 L 1290.0,945.0 L 1291.0,946.0 L 1292.0,946.0 L 1293.0,947.0 L 1294.0,947.0 L 1295.0,948.0 L 1296.0,948.0 L 1298.0,950.0 L 1299.0,950.0 L 1301.0,952.0 L 1302.0,952.0 L 1304.0,954.0 L 1305.0,954.0 L 1307.0,956.0 L 1308.0,956.0 L 1310.0,958.0 L 1311.0,958.0 L 1313.0,960.0 L 1314.0,960.0 L 1316.0,962.0 L 1317.0,962.0 L 1318.0,963.0 L 1319.0,963.0 L 1321.0,965.0 L 1322.0,965.0 L 1323.0,966.0 L 1324.0,966.0 L 1325.0,967.0 L 1326.0,967.0 L 1327.0,968.0 L 1329.0,968.0 L 1330.0,969.0 L 1332.0,969.0 L 1333.0,970.0 L 1335.0,970.0 L 1336.0,971.0 L 1339.0,971.0 L 1340.0,972.0 L 1342.0,972.0 L 1343.0,973.0 L 1345.0,973.0 L 1346.0,974.0 L 1348.0,974.0 L 1349.0,975.0 L 1351.0,975.0 L 1352.0,976.0 L 1353.0,976.0 L 1354.0,977.0 L 1356.0,977.0 L 1357.0,978.0 L 1359.0,978.0 L 1360.0,979.0 L 1361.0,979.0 L 1362.0,980.0 L 1364.0,980.0 L 1365.0,981.0 L 1366.0,981.0 L 1367.0,982.0 L 1368.0,982.0 L 1369.0,983.0 L 1371.0,983.0 L 1372.0,984.0 L 1374.0,984.0 L 1375.0,985.0 L 1377.0,985.0 L 1379.0,987.0 L 1381.0,987.0 L 1382.0,988.0 L 1383.0,988.0 L 1384.0,989.0 L 1386.0,989.0 L 1387.0,990.0 L 1388.0,990.0 L 1389.0,991.0 L 1391.0,991.0 L 1392.0,992.0 L 1393.0,992.0 L 1394.0,993.0 L 1398.0,993.0 L 1399.0,994.0 L 1401.0,994.0 L 1402.0,993.0 L 1408.0,993.0 L 1409.0,992.0 L 1415.0,992.0 L 1416.0,991.0 L 1431.0,991.0 L 1432.0,992.0 L 1437.0,992.0 L 1438.0,993.0 L 1440.0,993.0 L 1441.0,994.0 L 1442.0,994.0 L 1443.0,995.0 L 1445.0,995.0 L 1446.0,996.0 L 1448.0,996.0 L 1449.0,997.0 L 1450.0,997.0 L 1451.0,998.0 L 1454.0,998.0 L 1455.0,999.0 L 1457.0,999.0 L 1458.0,1000.0 L 1459.0,1000.0 L 1460.0,1001.0 L 1462.0,1001.0 L 1463.0,1002.0 L 1465.0,1002.0 L 1466.0,1003.0 L 1467.0,1003.0 L 1468.0,1004.0 L 1470.0,1004.0 L 1471.0,1005.0 L 1472.0,1005.0 L 1473.0,1006.0 L 1475.0,1006.0 L 1476.0,1007.0 L 1477.0,1007.0 L 1478.0,1008.0 L 1479.0,1008.0 L 1480.0,1009.0 L 1481.0,1009.0 L 1482.0,1010.0 L 1483.0,1010.0 L 1484.0,1011.0 L 1487.0,1011.0 L 1488.0,1012.0 L 1490.0,1012.0 L 1492.0,1014.0 L 1494.0,1014.0 L 1495.0,1015.0 L 1498.0,1015.0 L 1499.0,1016.0 L 1502.0,1016.0 L 1505.0,1013.0 L 1506.0,1013.0 L 1507.0,1012.0 L 1507.0,1011.0 L 1513.0,1005.0 L 1514.0,1005.0 L 1517.0,1002.0 L 1518.0,1002.0 L 1519.0,1001.0 L 1520.0,1001.0 L 1522.0,999.0 L 1524.0,999.0 L 1525.0,998.0 L 1530.0,998.0 L 1531.0,997.0 L 1534.0,997.0 L 1535.0,998.0 L 1538.0,998.0 L 1539.0,997.0 L 1545.0,997.0 L 1546.0,998.0 L 1552.0,998.0 L 1553.0,999.0 L 1554.0,999.0 L 1555.0,1000.0 L 1557.0,1000.0 L 1558.0,1001.0 L 1559.0,1001.0 L 1560.0,1002.0 L 1561.0,1002.0 L 1562.0,1003.0 L 1563.0,1003.0 L 1565.0,1005.0 L 1566.0,1005.0 L 1568.0,1007.0 L 1569.0,1007.0 L 1572.0,1010.0 L 1573.0,1010.0 L 1575.0,1012.0 L 1576.0,1012.0 L 1578.0,1014.0 L 1579.0,1014.0 L 1582.0,1017.0 L 1583.0,1017.0 L 1587.0,1021.0 L 1584.0,1024.0 L 1583.0,1024.0 L 1582.0,1025.0 L 1580.0,1025.0 L 1579.0,1024.0 L 1577.0,1024.0 L 1576.0,1023.0 L 1575.0,1023.0 L 1571.0,1019.0 L 1568.0,1019.0 L 1567.0,1018.0 L 1563.0,1018.0 L 1563.0,1019.0 L 1564.0,1018.0 L 1567.0,1018.0 L 1568.0,1019.0 L 1570.0,1019.0 L 1574.0,1023.0 L 1575.0,1023.0 L 1576.0,1024.0 L 1579.0,1024.0 L 1580.0,1025.0 L 1579.0,1026.0 L 1580.0,1025.0 L 1582.0,1025.0 L 1583.0,1024.0 L 1584.0,1024.0 L 1586.0,1022.0 L 1587.0,1022.0 L 1595.0,1030.0 L 1595.0,1031.0 L 1601.0,1037.0 L 1602.0,1037.0 L 1608.0,1043.0 L 1609.0,1043.0 L 1611.0,1045.0 L 1612.0,1045.0 L 1614.0,1047.0 L 1616.0,1047.0 L 1619.0,1050.0 L 1620.0,1050.0 L 1621.0,1051.0 L 1622.0,1051.0 L 1624.0,1053.0 L 1628.0,1053.0 L 1629.0,1054.0 L 1632.0,1054.0 L 1633.0,1053.0 L 1638.0,1053.0 L 1639.0,1052.0 L 1643.0,1052.0 L 1644.0,1051.0 L 1649.0,1051.0 L 1650.0,1052.0 L 1651.0,1051.0 L 1652.0,1051.0 L 1655.0,1054.0 L 1655.0,1055.0 L 1656.0,1056.0 L 1655.0,1057.0 L 1655.0,1058.0 L 1654.0,1059.0 L 1654.0,1060.0 L 1653.0,1061.0 L 1653.0,1062.0 L 1651.0,1064.0 L 1651.0,1065.0 L 1650.0,1066.0 L 1650.0,1067.0 L 1649.0,1068.0 L 1649.0,1069.0 L 1648.0,1070.0 L 1648.0,1071.0 L 1647.0,1072.0 L 1647.0,1074.0 L 1646.0,1075.0 L 1646.0,1077.0 L 1645.0,1078.0 L 1645.0,1079.0 L 1645.0,1078.0 L 1646.0,1077.0 L 1646.0,1075.0 L 1647.0,1074.0 L 1647.0,1073.0 L 1648.0,1072.0 L 1648.0,1071.0 L 1649.0,1070.0 L 1649.0,1069.0 L 1650.0,1068.0 L 1650.0,1067.0 L 1651.0,1066.0 L 1651.0,1065.0 L 1652.0,1064.0 L 1652.0,1063.0 L 1654.0,1061.0 L 1654.0,1060.0 L 1655.0,1059.0 L 1655.0,1057.0 L 1656.0,1056.0 L 1655.0,1055.0 L 1655.0,1053.0 L 1654.0,1052.0 L 1653.0,1052.0 L 1652.0,1051.0 L 1644.0,1051.0 L 1643.0,1052.0 L 1639.0,1052.0 L 1638.0,1053.0 L 1633.0,1053.0 L 1632.0,1054.0 L 1629.0,1054.0 L 1628.0,1053.0 L 1625.0,1053.0 L 1624.0,1052.0 L 1623.0,1052.0 L 1621.0,1050.0 L 1620.0,1050.0 L 1617.0,1047.0 L 1615.0,1047.0 L 1613.0,1045.0 L 1612.0,1045.0 L 1610.0,1043.0 L 1609.0,1043.0 L 1603.0,1037.0 L 1602.0,1037.0 L 1594.0,1029.0 L 1594.0,1028.0 L 1593.0,1028.0 L 1592.0,1027.0 L 1592.0,1026.0 L 1586.0,1020.0 L 1586.0,1019.0 L 1584.0,1017.0 L 1583.0,1017.0 L 1580.0,1014.0 L 1579.0,1014.0 L 1577.0,1012.0 L 1576.0,1012.0 L 1574.0,1010.0 L 1573.0,1010.0 L 1570.0,1007.0 L 1569.0,1007.0 L 1567.0,1005.0 L 1566.0,1005.0 L 1564.0,1003.0 L 1563.0,1003.0 L 1562.0,1002.0 L 1561.0,1002.0 L 1560.0,1001.0 L 1559.0,1001.0 L 1558.0,1000.0 L 1556.0,1000.0 L 1555.0,999.0 L 1553.0,999.0 L 1552.0,998.0 L 1546.0,998.0 L 1545.0,997.0 L 1539.0,997.0 L 1538.0,998.0 L 1535.0,998.0 L 1534.0,997.0 L 1531.0,997.0 L 1530.0,998.0 L 1525.0,998.0 L 1524.0,999.0 L 1522.0,999.0 L 1521.0,1000.0 L 1520.0,1000.0 L 1519.0,1001.0 L 1518.0,1001.0 L 1517.0,1002.0 L 1516.0,1002.0 L 1513.0,1005.0 L 1512.0,1005.0 L 1507.0,1010.0 L 1507.0,1011.0 L 1504.0,1014.0 L 1503.0,1014.0 L 1503.0,1015.0 L 1502.0,1016.0 L 1499.0,1016.0 L 1498.0,1015.0 L 1495.0,1015.0 L 1494.0,1014.0 L 1493.0,1014.0 L 1492.0,1013.0 L 1491.0,1013.0 L 1490.0,1012.0 L 1488.0,1012.0 L 1487.0,1011.0 L 1485.0,1011.0 L 1484.0,1010.0 L 1483.0,1010.0 L 1482.0,1009.0 L 1481.0,1009.0 L 1480.0,1008.0 L 1478.0,1008.0 L 1476.0,1006.0 L 1474.0,1006.0 L 1473.0,1005.0 L 1471.0,1005.0 L 1470.0,1004.0 L 1468.0,1004.0 L 1467.0,1003.0 L 1466.0,1003.0 L 1465.0,1002.0 L 1463.0,1002.0 L 1462.0,1001.0 L 1460.0,1001.0 L 1459.0,1000.0 L 1458.0,1000.0 L 1457.0,999.0 L 1455.0,999.0 L 1454.0,998.0 L 1451.0,998.0 L 1450.0,997.0 L 1449.0,997.0 L 1448.0,996.0 L 1446.0,996.0 L 1445.0,995.0 L 1443.0,995.0 L 1442.0,994.0 L 1441.0,994.0 L 1440.0,993.0 L 1438.0,993.0 L 1437.0,992.0 L 1432.0,992.0 L 1431.0,991.0 L 1416.0,991.0 L 1415.0,992.0 L 1409.0,992.0 L 1408.0,993.0 L 1402.0,993.0 L 1401.0,994.0 L 1399.0,994.0 L 1398.0,993.0 L 1394.0,993.0 L 1393.0,992.0 L 1392.0,992.0 L 1391.0,991.0 L 1390.0,991.0 L 1389.0,990.0 L 1387.0,990.0 L 1386.0,989.0 L 1385.0,989.0 L 1384.0,988.0 L 1382.0,988.0 L 1381.0,987.0 L 1380.0,987.0 L 1379.0,986.0 L 1378.0,986.0 L 1377.0,985.0 L 1375.0,985.0 L 1374.0,984.0 L 1372.0,984.0 L 1371.0,983.0 L 1370.0,983.0 L 1369.0,982.0 L 1367.0,982.0 L 1366.0,981.0 L 1365.0,981.0 L 1364.0,980.0 L 1363.0,980.0 L 1362.0,979.0 L 1360.0,979.0 L 1359.0,978.0 L 1357.0,978.0 L 1356.0,977.0 L 1354.0,977.0 L 1353.0,976.0 L 1352.0,976.0 L 1351.0,975.0 L 1349.0,975.0 L 1348.0,974.0 L 1346.0,974.0 L 1345.0,973.0 L 1343.0,973.0 L 1342.0,972.0 L 1340.0,972.0 L 1339.0,971.0 L 1336.0,971.0 L 1335.0,970.0 L 1333.0,970.0 L 1332.0,969.0 L 1330.0,969.0 L 1329.0,968.0 L 1327.0,968.0 L 1325.0,966.0 L 1324.0,966.0 L 1323.0,965.0 L 1322.0,965.0 L 1321.0,964.0 L 1320.0,964.0 L 1318.0,962.0 L 1317.0,962.0 L 1315.0,960.0 L 1314.0,960.0 L 1312.0,958.0 L 1311.0,958.0 L 1309.0,956.0 L 1308.0,956.0 L 1306.0,954.0 L 1305.0,954.0 L 1303.0,952.0 L 1302.0,952.0 L 1300.0,950.0 L 1299.0,950.0 L 1297.0,948.0 L 1296.0,948.0 L 1295.0,947.0 L 1294.0,947.0 L 1293.0,946.0 L 1292.0,946.0 L 1291.0,945.0 L 1290.0,945.0 L 1288.0,943.0 L 1287.0,943.0 L 1286.0,942.0 L 1285.0,942.0 L 1284.0,941.0 L 1283.0,941.0 L 1282.0,940.0 L 1280.0,940.0 L 1278.0,938.0 L 1277.0,938.0 L 1276.0,937.0 L 1275.0,937.0 L 1274.0,936.0 L 1273.0,936.0 L 1272.0,935.0 L 1271.0,935.0 L 1270.0,934.0 L 1268.0,934.0 L 1267.0,933.0 L 1266.0,933.0 L 1265.0,932.0 L 1264.0,932.0 L 1263.0,931.0 L 1261.0,931.0 L 1259.0,929.0 L 1258.0,929.0 L 1257.0,928.0 L 1256.0,928.0 L 1255.0,927.0 L 1254.0,927.0 L 1253.0,926.0 L 1252.0,926.0 L 1251.0,925.0 L 1250.0,925.0 L 1249.0,924.0 L 1247.0,924.0 L 1246.0,923.0 L 1245.0,923.0 L 1243.0,921.0 L 1242.0,921.0 L 1240.0,919.0 L 1239.0,919.0 L 1238.0,918.0 L 1237.0,918.0 L 1236.0,917.0 L 1235.0,917.0 L 1234.0,916.0 L 1233.0,916.0 L 1232.0,915.0 L 1231.0,915.0 L 1229.0,913.0 L 1228.0,913.0 L 1225.0,910.0 L 1224.0,910.0 L 1220.0,906.0 L 1219.0,906.0 L 1217.0,904.0 L 1214.0,904.0 L 1213.0,903.0 L 1208.0,903.0 L 1207.0,902.0 L 1206.0,902.0 L 1205.0,901.0 L 1203.0,901.0 L 1202.0,900.0 L 1199.0,900.0 L 1198.0,899.0 L 1193.0,899.0 L 1192.0,898.0 L 1190.0,898.0 L 1189.0,897.0 L 1186.0,897.0 L 1185.0,896.0 L 1183.0,896.0 L 1182.0,895.0 L 1179.0,895.0 L 1178.0,894.0 L 1176.0,894.0 L 1175.0,893.0 L 1171.0,893.0 L 1170.0,892.0 L 1167.0,892.0 L 1166.0,891.0 L 1165.0,891.0 L 1164.0,890.0 L 1162.0,890.0 L 1161.0,889.0" fill="none" stroke="#000000" stroke-width="1"/>
</svg>
